<svg width="113" height="29" viewBox="0 0 113 29" fill="none" xmlns="http://www.w3.org/2000/svg">
<path d="M107.217 28H5.78335C2.59432 28 0 25.2916 0 21.9624V6.03759C0 2.70838 2.59432 0 5.78335 0H113V21.9624C113 25.2916 110.406 28 107.217 28Z" fill="#DCE0E7"/>
<path d="M80.8099 16H32.1901C30.9825 16 30 15.1027 30 14C30 12.8973 30.9825 12 32.1901 12H80.8099C82.0175 12 83 12.8973 83 14C83 15.1027 82.0175 16 80.8099 16Z" fill="#FCFCFD"/>
<path d="M15.5093 28.0955H5.83799C2.61915 28.0955 0.000228882 25.4766 0.000228882 22.2577V12.5864L15.5093 28.0955Z" fill="#1269ED"/>
<path d="M98.7064 0L113 6.71088e-06V14.2937L98.7064 0Z" fill="#1269ED"/>
</svg>
