<svg width="109" height="21" viewBox="0 0 109 21" fill="none" xmlns="http://www.w3.org/2000/svg">
<path d="M104.996 7H31.0042C29.9699 7.0006 28.9761 7.40107 28.2309 8.11752C27.4857 8.83396 27.047 9.81076 27.0067 10.8432C27.0013 10.8953 26.9992 10.9477 27.0003 11C27.0018 12.0604 27.4241 13.077 28.1746 13.8268C28.9252 14.5766 29.9427 14.9985 31.0042 15H104.996C106.058 15 107.076 14.5786 107.827 13.8284C108.578 13.0783 109 12.0609 109 11C109 9.93913 108.578 8.92172 107.827 8.17157C107.076 7.42143 106.058 7 104.996 7Z" fill="#DCE0E7"/>
<path d="M9.48028 17C9.11703 17.0007 8.7634 16.8764 8.47275 16.6457L8.45474 16.6314L4.66046 13.5558C4.48474 13.4132 4.33726 13.2354 4.22643 13.0326C4.11561 12.8297 4.04363 12.6057 4.01458 12.3733C3.98553 12.141 3.99999 11.9049 4.05713 11.6784C4.11427 11.452 4.21299 11.2397 4.34762 11.0537C4.48226 10.8677 4.65019 10.7115 4.84182 10.5942C5.03346 10.4769 5.24504 10.4007 5.4645 10.3699C5.68396 10.3391 5.90698 10.3544 6.12085 10.4149C6.33472 10.4754 6.53524 10.58 6.71097 10.7225L9.1686 12.7176L14.9764 4.69874C15.1111 4.51275 15.2791 4.35667 15.4708 4.23942C15.6624 4.12216 15.874 4.04602 16.0935 4.01535C16.313 3.98468 16.536 4.00008 16.7499 4.06066C16.9637 4.12124 17.1642 4.22582 17.3398 4.36844L17.3037 4.42035L17.3408 4.36919C17.6951 4.65753 17.927 5.0829 17.9855 5.55199C18.044 6.02108 17.9243 6.49558 17.6528 6.87139L10.8214 16.3035C10.6634 16.5209 10.4602 16.6967 10.2277 16.8175C9.99507 16.9383 9.73933 17.0008 9.48028 17Z" fill="#1269ED"/>
<rect x="0.5" y="0.5" width="20" height="20" rx="1.5" stroke="#475367"/>
</svg>
