<svg width="95" height="95" viewBox="0 0 95 95" fill="none" xmlns="http://www.w3.org/2000/svg">
<rect x="20.7562" y="18.194" width="71" height="71" rx="1" stroke="#1269ED" stroke-width="2"/>
<rect x="39" y="39" width="34" height="49" rx="2" fill="#D0E1FB"/>
<path d="M17.0324 5.19176C16.7388 5.48454 16.7388 5.96051 17.0324 6.25329L21.8123 11.0309C22.1052 11.3245 22.5814 11.3245 22.8743 11.0309C23.168 10.7381 23.168 10.2622 22.8743 9.9694L18.6255 5.72252L22.8743 1.47565C23.168 1.18287 23.168 0.706905 22.8743 0.414121C22.5814 0.120586 22.1052 0.120586 21.8123 0.414121L17.0324 5.19176ZM94.7039 6.25329C94.9976 5.96051 94.9976 5.48454 94.7039 5.19176L89.9241 0.414121C89.6312 0.120586 89.155 0.120586 88.8621 0.414121C88.5684 0.706905 88.5684 1.18287 88.8621 1.47565L93.1109 5.72252L88.8621 9.9694C88.5684 10.2622 88.5684 10.7381 88.8621 11.0309C89.155 11.3245 89.6312 11.3245 89.9241 11.0309L94.7039 6.25329ZM17.5635 6.47325H94.1729V4.9718H17.5635V6.47325Z" fill="#1E232C"/>
<path d="M6.13518 16.9142C5.84239 16.6206 5.36643 16.6206 5.07365 16.9142L0.296008 21.6941C0.00247265 21.987 0.00247263 22.4632 0.296008 22.7561C0.588792 23.0497 1.06476 23.0497 1.35754 22.7561L5.60441 18.5072L9.85128 22.7561C10.1441 23.0497 10.62 23.0497 10.9128 22.7561C11.2063 22.4632 11.2063 21.987 10.9128 21.6941L6.13518 16.9142ZM5.07364 94.5857C5.36643 94.8794 5.84239 94.8794 6.13517 94.5857L10.9128 89.8058C11.2063 89.5129 11.2063 89.0368 10.9128 88.7438C10.62 88.4502 10.1441 88.4502 9.85128 88.7438L5.60441 92.9927L1.35754 88.7438C1.06475 88.4502 0.588789 88.4502 0.296005 88.7438C0.00246972 89.0368 0.00246969 89.5129 0.296005 89.8058L5.07364 94.5857ZM4.85368 17.4452L4.85368 94.0547L6.35514 94.0547L6.35514 17.4452L4.85368 17.4452Z" fill="#1E232C"/>
<path d="M56.3536 21.6464C56.1583 21.4512 55.8417 21.4512 55.6464 21.6464L52.4645 24.8284C52.2692 25.0237 52.2692 25.3403 52.4645 25.5355C52.6597 25.7308 52.9763 25.7308 53.1716 25.5355L56 22.7071L58.8284 25.5355C59.0237 25.7308 59.3403 25.7308 59.5355 25.5355C59.7308 25.3403 59.7308 25.0237 59.5355 24.8284L56.3536 21.6464ZM55.6464 37.3536C55.8417 37.5488 56.1583 37.5488 56.3536 37.3536L59.5355 34.1716C59.7308 33.9763 59.7308 33.6597 59.5355 33.4645C59.3403 33.2692 59.0237 33.2692 58.8284 33.4645L56 36.2929L53.1716 33.4645C52.9763 33.2692 52.6597 33.2692 52.4645 33.4645C52.2692 33.6597 52.2692 33.9763 52.4645 34.1716L55.6464 37.3536ZM55.5 22L55.5 37L56.5 37L56.5 22L55.5 22Z" fill="#475367"/>
<path d="M89.8536 63.3536C90.0488 63.1583 90.0488 62.8417 89.8536 62.6464L86.6716 59.4645C86.4763 59.2692 86.1597 59.2692 85.9645 59.4645C85.7692 59.6597 85.7692 59.9763 85.9645 60.1716L88.7929 63L85.9645 65.8284C85.7692 66.0237 85.7692 66.3403 85.9645 66.5355C86.1597 66.7308 86.4763 66.7308 86.6716 66.5355L89.8536 63.3536ZM74.1464 62.6464C73.9512 62.8417 73.9512 63.1583 74.1464 63.3536L77.3284 66.5355C77.5237 66.7308 77.8403 66.7308 78.0355 66.5355C78.2308 66.3403 78.2308 66.0237 78.0355 65.8284L75.2071 63L78.0355 60.1716C78.2308 59.9763 78.2308 59.6597 78.0355 59.4645C77.8403 59.2692 77.5237 59.2692 77.3284 59.4645L74.1464 62.6464ZM89.5 62.5L74.5 62.5L74.5 63.5L89.5 63.5L89.5 62.5Z" fill="#475367"/>
<path d="M37.8536 63.3536C38.0488 63.1583 38.0488 62.8417 37.8536 62.6464L34.6716 59.4645C34.4763 59.2692 34.1597 59.2692 33.9645 59.4645C33.7692 59.6597 33.7692 59.9763 33.9645 60.1716L36.7929 63L33.9645 65.8284C33.7692 66.0237 33.7692 66.3403 33.9645 66.5355C34.1597 66.7308 34.4763 66.7308 34.6716 66.5355L37.8536 63.3536ZM22.1464 62.6464C21.9512 62.8417 21.9512 63.1583 22.1464 63.3536L25.3284 66.5355C25.5237 66.7308 25.8403 66.7308 26.0355 66.5355C26.2308 66.3403 26.2308 66.0237 26.0355 65.8284L23.2071 63L26.0355 60.1716C26.2308 59.9763 26.2308 59.6597 26.0355 59.4645C25.8403 59.2692 25.5237 59.2692 25.3284 59.4645L22.1464 62.6464ZM37.5 62.5L22.5 62.5L22.5 63.5L37.5 63.5L37.5 62.5Z" fill="#475367"/>
</svg>
