<svg width="113" height="77" viewBox="0 0 113 77" fill="none" xmlns="http://www.w3.org/2000/svg">
<path d="M107.217 27.9999H5.78335C2.59432 27.9999 0 25.2915 0 21.9623V6.03747C0 2.70825 2.59432 -0.00012207 5.78335 -0.00012207H113V21.9623C113 25.2915 110.406 27.9999 107.217 27.9999Z" fill="#DCE0E7"/>
<path d="M80.8099 15.9999H32.1901C30.9825 15.9999 30 15.1026 30 13.9999C30 12.8971 30.9825 11.9999 32.1901 11.9999H80.8099C82.0175 11.9999 83 12.8971 83 13.9999C83 15.1026 82.0175 15.9999 80.8099 15.9999Z" fill="#FCFCFD"/>
<path d="M15.5093 28.0954H5.838C2.61916 28.0954 0.000244141 25.4764 0.000244141 22.2576V12.5863L15.5093 28.0954Z" fill="#1269ED"/>
<path d="M98.256 16.4018C98.6533 16.8442 99.3467 16.8442 99.744 16.4018L103.564 12.1484C104.142 11.5046 103.685 10.4802 102.82 10.4802H95.18C94.3147 10.4802 93.8579 11.5046 94.436 12.1484L98.256 16.4018Z" fill="#1269ED"/>
<rect x="14" y="30.0001" width="99" height="47" rx="2" fill="#F0F2F5"/>
<line x1="23" y1="45" x2="104" y2="45" stroke="#DCE0E7" stroke-width="2"/>
<line x1="23" y1="61" x2="104" y2="61" stroke="#DCE0E7" stroke-width="2"/>
</svg>
