<svg width="62" height="62" viewBox="0 0 62 62" fill="none" xmlns="http://www.w3.org/2000/svg">
<path d="M31 62C13.9066 62 0 48.0935 0 31C0 13.9065 13.9066 0 31 0C48.0934 0 62 13.9066 62 31C62 48.0934 48.0934 62 31 62ZM31 0.449275C14.1543 0.449275 8.53623 13.4803 8.53623 30.3261C8.53623 47.1718 14.1543 61.5507 31 61.5507C47.8457 61.5507 61.5507 47.8456 61.5507 31C61.5507 14.1544 47.8457 0.449275 31 0.449275Z" fill="#1E232C"/>
<path d="M45.5679 29.4949L31.6857 15.586C31.6454 15.5329 31.6026 15.481 31.5541 15.4325C31.2633 15.1411 30.8812 14.9972 30.5 15C30.1188 14.9972 29.7367 15.1411 29.4459 15.4325C29.3974 15.481 29.3546 15.5329 29.3143 15.586L15.4321 29.4949C14.856 30.0722 14.856 31.0082 15.4321 31.5855C16.0083 32.1628 16.9426 32.1628 17.5188 31.5855L29.0245 20.0576V44.5217C29.0245 45.3381 29.6851 46 30.5 46C31.3149 46 31.9755 45.3381 31.9755 44.5217V20.0576L43.4812 31.5855C44.0574 32.1628 44.9917 32.1628 45.5679 31.5855C46.1441 31.0082 46.1441 30.0722 45.5679 29.4949Z" fill="#1269ED"/>
</svg>
