<svg width="115" height="65" viewBox="0 0 115 65" fill="none" xmlns="http://www.w3.org/2000/svg">
<path d="M107.521 55H18.3795C17.8169 54.9935 17.2569 54.9229 16.7105 54.7896C15.0796 54.4 13.6287 53.4745 12.5924 52.163C11.5561 50.8514 10.995 49.2306 11 47.5626V17.4307C11.0031 15.4597 11.7923 13.5705 13.1944 12.1775C14.5964 10.7844 16.4969 10.0013 18.4788 10H107.521C108.721 9.99687 109.904 10.2848 110.968 10.8389C111.391 11.0572 111.791 11.317 112.163 11.6144C113.05 12.305 113.767 13.188 114.258 14.196C114.75 15.204 115.004 16.3104 115 17.4307V47.5626C114.998 49.5344 114.209 51.4249 112.807 52.8192C111.405 54.2135 109.504 54.9978 107.521 55Z" fill="#F0F2F5"/>
<path d="M101 54C105.113 44.5736 109.447 35.2402 114 26V41.6663C110.843 46.1097 107.342 50.2802 103.282 54H101Z" fill="#1269ED"/>
<path d="M112 11.7062C103.89 26.022 95.4042 40.1199 86.5429 54H85C94.0089 39.9021 102.642 25.5688 110.9 11C111.29 11.1988 111.658 11.4354 112 11.7062Z" fill="#1269ED"/>
<path d="M53 28.0962C47.8414 37.0527 42.1487 45.7024 35.9518 54H27C32.8634 46.9854 38.7312 39.9709 44.6032 32.9563C46.2878 30.9366 48.116 28.8207 50.6429 28L53 28.0962Z" fill="#1269ED"/>
<path d="M41 26.7103C40.0526 27.6364 39.145 28.5999 38.2904 29.6007C36.4089 31.7266 34.5539 33.8711 32.6922 36.0094C31.5329 37.3395 30.3735 38.6698 29.2274 40C28.8634 39.7807 28.5179 39.5354 28.1939 39.2665C26.3632 37.7758 25.2277 35.6715 25.0307 33.4047C24.8337 31.1378 25.5908 28.8887 27.1399 27.1394C28.689 25.3901 30.9068 24.2796 33.318 24.046C35.7292 23.8124 38.142 24.4743 40.0394 25.8898C40.3813 26.14 40.7024 26.4143 41 26.7103Z" fill="#FCFCFD"/>
<path d="M92.2154 32.2596L74.8183 25.9132L66.1793 22.7632C63.3659 21.7395 60.559 20.5706 57.6529 19.831C55.1256 19.1104 52.442 19.1449 49.9341 19.93C47.6978 20.7557 45.6512 22.0224 43.9166 23.6547C43.1486 24.3613 42.405 25.09 41.6857 25.8406C40.739 26.8246 39.8321 27.8482 38.9781 28.9115C37.098 31.17 35.2445 33.4484 33.3843 35.7202C32.2258 37.1334 31.0673 38.5467 29.9221 39.9599C26.0957 44.6289 22.2915 49.309 18.5093 54C18.0005 53.9941 17.4941 53.9298 17 53.8085C20.9455 48.9215 24.9086 44.0456 28.8894 39.1807C29.3462 38.6127 29.8161 38.0381 30.2795 37.4702C32.2192 35.0994 34.161 32.7308 36.1051 30.3643C37.6078 28.535 39.0973 26.6925 40.7258 24.9689C40.8714 24.8104 41.0171 24.6585 41.1693 24.5C44.4726 21.0923 48.5969 18.0809 53.5353 18.0017C56.4414 17.9554 59.2483 18.8734 61.9492 19.8442C64.8554 20.8942 67.7549 21.9641 70.661 23.0273L88.1773 29.42L92.5597 31.0181C93.3342 31.2955 93.0032 32.5502 92.2154 32.2596Z" fill="#1269ED"/>
<path d="M0.458153 21V2.62742C0.459109 2.05403 0.683699 1.50443 1.08266 1.0992C1.48161 0.693973 2.02235 0.466205 2.58625 0.465864H26V0H2.58625C1.90088 0.000463645 1.24368 0.277352 0.758828 0.769921C0.273977 1.26249 0.00107666 1.93051 0 2.62742V21L0.458153 21Z" fill="#1E232C"/>
<path d="M2.08339 64.4732C1.61926 64.3598 1.20631 64.0905 0.911378 63.7089C0.616442 63.3272 0.456762 62.8556 0.458164 62.3702V44H1.1441e-05V62.3702C-0.00171638 62.96 0.192303 63.5331 0.550674 63.9969C0.909044 64.4606 1.4108 64.7878 1.97478 64.9256C2.16374 64.9728 2.35739 64.9977 2.55194 65H26V64.5341H2.55474C2.39585 64.5321 2.23772 64.5116 2.08339 64.4732Z" fill="#1E232C"/>
<path d="M107.542 44V62.3702C107.541 62.9439 107.317 63.4939 106.918 63.8996C106.519 64.3053 105.978 64.5335 105.414 64.5341H82V65H105.414C106.099 64.9992 106.757 64.7219 107.242 64.2289C107.727 63.7359 107.999 63.0674 108 62.3702V44H107.542Z" fill="#1E232C"/>
<path d="M107.394 0.710055C107.515 0.773498 107.628 0.849017 107.734 0.93548C107.986 1.13625 108.19 1.39307 108.33 1.6863C108.47 1.97953 108.543 2.30143 108.542 2.62742V21H109V2.62743C109.001 2.23129 108.914 1.84008 108.744 1.48366C108.573 1.12724 108.326 0.815029 108.019 0.570852C107.89 0.465684 107.752 0.373819 107.606 0.29663C107.238 0.100705 106.829 -0.00110788 106.414 9.09227e-06H83V0.465873H106.414C106.755 0.464967 107.092 0.548782 107.394 0.710055Z" fill="#1E232C"/>
</svg>
