<svg width="87" height="93" viewBox="0 0 87 93" fill="none" xmlns="http://www.w3.org/2000/svg">
<path d="M84.3301 0.826294H2.6699C2.16077 0.826538 1.67254 1.09395 1.31252 1.56976C0.952511 2.04556 0.750185 2.69083 0.75 3.36372V89.6362C0.750187 90.3091 0.952511 90.9543 1.31252 91.4301C1.67254 91.9059 2.16077 92.1733 2.6699 92.1736H84.3301C84.8392 92.1733 85.3274 91.9059 85.6875 91.4301C86.0475 90.9543 86.2498 90.3091 86.25 89.6362V3.36372C86.2498 2.69083 86.0475 2.04557 85.6875 1.56976C85.3274 1.09396 84.8392 0.826542 84.3301 0.826294Z" fill="white"/>
<path d="M84.3301 0.826294H2.6699C2.16077 0.826538 1.67254 1.09395 1.31252 1.56976C0.952511 2.04556 0.750185 2.69083 0.75 3.36372V89.6362C0.750187 90.3091 0.952511 90.9543 1.31252 91.4301C1.67254 91.9059 2.16077 92.1733 2.6699 92.1736H84.3301C84.8392 92.1733 85.3274 91.9059 85.6875 91.4301C86.0475 90.9543 86.2498 90.3091 86.25 89.6362V3.36372C86.2498 2.69083 86.0475 2.04557 85.6875 1.56976C85.3274 1.09396 84.8392 0.826542 84.3301 0.826294ZM85.482 89.6362C85.4816 90.0398 85.3601 90.4267 85.1441 90.7121C84.9282 90.9974 84.6355 91.158 84.3301 91.1586H2.6699C2.36453 91.158 2.07179 90.9974 1.85586 90.7121C1.63993 90.4267 1.51843 90.0398 1.51797 89.6362V3.36372C1.51843 2.96013 1.63993 2.57324 1.85586 2.28786C2.07179 2.00247 2.36453 1.84187 2.6699 1.84127H84.3301C84.6355 1.84187 84.9282 2.00247 85.1441 2.28785C85.3601 2.57323 85.4816 2.96013 85.482 3.36372L85.482 89.6362Z" fill="#DCE0E7"/>
<path d="M18.8241 11.0003C18.3083 11.0089 17.8165 11.2233 17.4548 11.5974C17.093 11.9715 16.8903 12.4752 16.8903 13C16.8903 13.5248 17.093 14.0285 17.4548 14.4026C17.8165 14.7767 18.3083 14.9911 18.8241 14.9997H68.1114C68.3695 15.004 68.626 14.9566 68.8661 14.8601C69.1062 14.7636 69.3253 14.6199 69.5109 14.4372C69.6964 14.2546 69.8447 14.0366 69.9474 13.7956C70.0501 13.5546 70.1052 13.2954 70.1094 13.0328C70.1137 12.7702 70.067 12.5093 69.9722 12.2651C69.8773 12.0208 69.736 11.7979 69.5565 11.6092C69.377 11.4205 69.1626 11.2695 68.9258 11.1651C68.6889 11.0606 68.4341 11.0046 68.176 11.0003C68.1545 10.9999 68.1329 10.9999 68.1114 11.0003H18.8241Z" fill="#1269ED"/>
<path d="M18.8241 27.0003C18.3083 27.0111 17.8165 27.2792 17.4548 27.7468C17.093 28.2144 16.8903 28.8441 16.8903 29.5C16.8903 30.1559 17.093 30.7856 17.4548 31.2532C17.8165 31.7208 18.3083 31.9889 18.8241 31.9997H68.1114C68.6328 32.0105 69.1362 31.7576 69.5109 31.2966C69.8856 30.8355 70.1009 30.204 70.1094 29.5411C70.118 28.8781 69.9191 28.238 69.5565 27.7615C69.1939 27.285 68.6973 27.0112 68.176 27.0003C68.1545 26.9999 68.1329 26.9999 68.1114 27.0003H18.8241Z" fill="#1269ED"/>
<path d="M18.8241 44.0003C18.3083 44.0089 17.8165 44.2233 17.4548 44.5974C17.093 44.9715 16.8903 45.4752 16.8903 46C16.8903 46.5248 17.093 47.0285 17.4548 47.4026C17.8165 47.7767 18.3083 47.9911 18.8241 47.9997H68.1114C68.6328 48.0084 69.1362 47.8061 69.5109 47.4372C69.8856 47.0684 70.1009 46.5632 70.1094 46.0328C70.118 45.5025 69.9191 44.9904 69.5565 44.6092C69.1939 44.228 68.6973 44.009 68.176 44.0003C68.1545 43.9999 68.1329 43.9999 68.1114 44.0003H18.8241Z" fill="#1269ED"/>
<path d="M18.8241 60.0003C18.3083 60.0089 17.8165 60.2233 17.4548 60.5974C17.093 60.9715 16.8903 61.4752 16.8903 62C16.8903 62.5248 17.093 63.0285 17.4548 63.4026C17.8165 63.7767 18.3083 63.9911 18.8241 63.9997H68.1114C68.6328 64.0084 69.1362 63.8061 69.5109 63.4372C69.8856 63.0684 70.1009 62.5632 70.1094 62.0328C70.118 61.5025 69.9191 60.9904 69.5565 60.6092C69.1939 60.228 68.6973 60.009 68.176 60.0003C68.1545 59.9999 68.1329 59.9999 68.1114 60.0003H18.8241Z" fill="#1269ED"/>
<path d="M18.8241 77.0003C18.3083 77.0089 17.8165 77.2233 17.4548 77.5974C17.093 77.9715 16.8903 78.4752 16.8903 79C16.8903 79.5248 17.093 80.0285 17.4548 80.4026C17.8165 80.7767 18.3083 80.9911 18.8241 80.9997H68.1114C68.6328 81.0084 69.1362 80.8061 69.5109 80.4372C69.8856 80.0684 70.1009 79.5632 70.1094 79.0328C70.118 78.5025 69.9191 77.9904 69.5565 77.6092C69.1939 77.228 68.6973 77.009 68.176 77.0003C68.1545 76.9999 68.1329 76.9999 68.1114 77.0003H18.8241Z" fill="#1269ED"/>
</svg>
