<svg width="93" height="91" viewBox="0 0 93 91" fill="none" xmlns="http://www.w3.org/2000/svg">
<path d="M13.6162 13.0003C12.9184 13.0089 12.2531 13.2233 11.7637 13.5974C11.2743 13.9715 11 14.4752 11 15C11 15.5248 11.2743 16.0285 11.7637 16.4026C12.2531 16.7767 12.9184 16.9911 13.6162 16.9997H80.2965C80.6458 17.004 80.9927 16.9566 81.3176 16.8601C81.6424 16.7636 81.9388 16.6199 82.1898 16.4372C82.4408 16.2546 82.6415 16.0366 82.7805 15.7956C82.9194 15.5546 82.9939 15.2954 82.9996 15.0328C83.0054 14.7702 82.9423 14.5093 82.8139 14.2651C82.6856 14.0208 82.4945 13.7979 82.2516 13.6092C82.0087 13.4205 81.7187 13.2695 81.3983 13.1651C81.0778 13.0606 80.7331 13.0046 80.3839 13.0003C80.3548 12.9999 80.3257 12.9999 80.2965 13.0003H13.6162Z" fill="#1269ED"/>
<path d="M90.9117 0H2.08831C1.53452 0.000243463 1.00346 0.266639 0.611868 0.740636C0.220275 1.21463 0.000201137 1.85744 0 2.52778V88.4722C0.000203449 89.1426 0.220275 89.7854 0.611868 90.2594C1.00346 90.7334 1.53452 90.9998 2.08831 91H90.9117C91.4655 90.9998 91.9965 90.7334 92.3881 90.2594C92.7797 89.7854 92.9998 89.1426 93 88.4722V2.52778C92.9998 1.85745 92.7797 1.21464 92.3881 0.740642C91.9965 0.266645 91.4655 0.000247193 90.9117 0ZM92.1647 88.4722C92.1642 88.8743 92.032 89.2597 91.7971 89.544C91.5623 89.8283 91.2438 89.9883 90.9117 89.9889H2.08831C1.75615 89.9883 1.43774 89.8283 1.20287 89.544C0.967992 89.2597 0.835832 88.8743 0.835333 88.4722V2.52778C0.835833 2.12572 0.967992 1.7403 1.20287 1.45601C1.43774 1.17171 1.75615 1.01172 2.08831 1.01112H90.9117C91.2438 1.01172 91.5623 1.1717 91.7971 1.456C92.032 1.7403 92.1642 2.12572 92.1647 2.52778L92.1647 88.4722Z" fill="#DCE0E7"/>
<path d="M23.9789 25.0557C23.4511 25.0643 22.9478 25.2801 22.5776 25.6564C22.2074 26.0327 22 26.5395 22 27.0674C22 27.5953 22.2074 28.102 22.5776 28.4783C22.9478 28.8547 23.4511 29.0704 23.9789 29.0791H74.4181C74.6823 29.0834 74.9447 29.0357 75.1905 28.9386C75.4362 28.8415 75.6604 28.6969 75.8503 28.5132C76.0402 28.3295 76.192 28.1101 76.2971 27.8677C76.4022 27.6253 76.4585 27.3646 76.4628 27.1004C76.4672 26.8362 76.4195 26.5738 76.3224 26.3281C76.2253 26.0823 76.0807 25.8581 75.897 25.6683C75.7133 25.4784 75.4939 25.3266 75.2515 25.2215C75.0091 25.1164 74.7484 25.06 74.4842 25.0557C74.4622 25.0553 74.4402 25.0553 74.4181 25.0557H23.9789Z" fill="#DCE0E7"/>
<path d="M82.8223 27.0397L79.2894 25V29.0793L82.8223 27.0397L79.2894 25V29.0793L82.8223 27.0397Z" fill="#1269ED"/>
<path d="M23.979 37.0796C23.4512 37.0883 22.9479 37.304 22.5777 37.6803C22.2075 38.0567 22 38.5634 22 39.0913C22 39.6192 22.2075 40.1259 22.5777 40.5023C22.9479 40.8786 23.4512 41.0943 23.979 41.103H74.4182C74.9517 41.1117 75.4669 40.9082 75.8503 40.5371C76.2338 40.1661 76.4541 39.6579 76.4629 39.1243C76.4716 38.5908 76.2681 38.0756 75.897 37.6922C75.526 37.3087 75.0178 37.0884 74.4842 37.0796C74.4622 37.0793 74.4402 37.0793 74.4182 37.0796H23.979Z" fill="#DCE0E7"/>
<path d="M82.8223 39.1191L79.2894 37.0794V41.1588L82.8223 39.1191L79.2894 37.0794V41.1588L82.8223 39.1191Z" fill="#1269ED"/>
<path d="M23.979 49.159C23.4512 49.1677 22.9479 49.3834 22.5777 49.7597C22.2075 50.1361 22 50.6428 22 51.1707C22 51.6986 22.2075 52.2053 22.5777 52.5817C22.9479 52.958 23.4512 53.1737 23.979 53.1824H74.4182C74.9517 53.1911 75.4669 52.9876 75.8503 52.6165C76.2338 52.2455 76.4541 51.7373 76.4629 51.2037C76.4716 50.6702 76.2681 50.155 75.897 49.7716C75.526 49.3881 75.0178 49.1678 74.4842 49.159C74.4622 49.1587 74.4402 49.1587 74.4182 49.159H23.979Z" fill="#DCE0E7"/>
<path d="M81.3291 52.6917L83.3688 49.1588H79.2894L81.3291 52.6917L83.3688 49.1588H79.2894L81.3291 52.6917Z" fill="#1269ED"/>
<path d="M23.979 61.183C23.4512 61.1916 22.9479 61.4073 22.5777 61.7837C22.2075 62.16 22 62.6667 22 63.1946C22 63.7225 22.2075 64.2293 22.5777 64.6056C22.9479 64.9819 23.4512 65.1976 23.979 65.2063H74.4182C74.9517 65.2151 75.4669 65.0115 75.8503 64.6405C76.2338 64.2694 76.4541 63.7612 76.4629 63.2277C76.4716 62.6941 76.2681 62.179 75.897 61.7955C75.526 61.4121 75.0178 61.1917 74.4842 61.183C74.4622 61.1826 74.4402 61.1826 74.4182 61.183H23.979Z" fill="#DCE0E7"/>
<path d="M82.8223 63.2223L79.2894 61.1826V65.262L82.8223 63.2223L79.2894 61.1826V65.262L82.8223 63.2223Z" fill="#1269ED"/>
<path d="M23.979 73.2624C23.4512 73.271 22.9479 73.4868 22.5777 73.8631C22.2075 74.2394 22 74.7461 22 75.274C22 75.8019 22.2075 76.3087 22.5777 76.685C22.9479 77.0613 23.4512 77.2771 23.979 77.2857H74.4182C74.9517 77.2945 75.4669 77.0909 75.8503 76.7199C76.2338 76.3488 76.4541 75.8406 76.4629 75.3071C76.4716 74.7735 76.2681 74.2584 75.897 73.8749C75.526 73.4915 75.0178 73.2711 74.4842 73.2624C74.4622 73.262 74.4402 73.262 74.4182 73.2624H23.979Z" fill="#DCE0E7"/>
<path d="M81.3291 76.795L83.3688 73.2621H79.2894L81.3291 76.795L83.3688 73.2621H79.2894L81.3291 76.795Z" fill="#1269ED"/>
</svg>
