<svg width="99" height="23" viewBox="0 0 99 23" fill="none" xmlns="http://www.w3.org/2000/svg">
<path d="M95.582 8H32.4182C31.5353 8.00045 30.6869 8.30081 30.0507 8.83814C29.4146 9.37547 29.0401 10.1081 29.0057 10.8824C29.0011 10.9215 28.9993 10.9607 29.0002 11C29.0015 11.7953 29.362 12.5577 30.0027 13.1201C30.6434 13.6824 31.5121 13.9989 32.4182 14H95.582C96.4885 14 97.3579 13.6839 97.9989 13.1213C98.6399 12.5587 99 11.7956 99 11C99 10.2044 98.6399 9.44129 97.9989 8.87868C97.3579 8.31607 96.4885 8 95.582 8Z" fill="#DCE0E7"/>
<path d="M9.91448 17C9.65502 17.0005 9.40243 16.9049 9.19482 16.7274L9.18196 16.7164L6.47176 14.3506C6.34624 14.241 6.2409 14.1042 6.16174 13.9481C6.08258 13.7921 6.03116 13.6197 6.01041 13.441C5.98966 13.2623 5.99999 13.0807 6.04081 12.9065C6.08162 12.7323 6.15213 12.569 6.2483 12.4259C6.34447 12.2828 6.46442 12.1627 6.6013 12.0725C6.73818 11.9822 6.88932 11.9236 7.04607 11.8999C7.20283 11.8763 7.36213 11.888 7.51489 11.9346C7.66766 11.9811 7.81089 12.0615 7.9364 12.1712L9.69186 13.7059L13.8403 7.53749C13.9365 7.39442 14.0565 7.27436 14.1934 7.18417C14.3303 7.09397 14.4815 7.0354 14.6382 7.01181C14.795 6.98821 14.9543 7.00006 15.107 7.04666C15.2598 7.09326 15.403 7.17371 15.5285 7.28341L15.5027 7.32335L15.5291 7.28399C15.7822 7.50579 15.9479 7.833 15.9896 8.19384C16.0314 8.55468 15.9459 8.91968 15.752 9.20876L10.8724 16.4642C10.7596 16.6314 10.6145 16.7667 10.4483 16.8596C10.2822 16.9526 10.0995 17.0006 9.91448 17Z" fill="#1269ED"/>
<path d="M22.5 11.5C22.5 17.5751 17.5751 22.5 11.5 22.5C5.42487 22.5 0.5 17.5751 0.5 11.5C0.5 5.42487 5.42487 0.5 11.5 0.5C17.5751 0.5 22.5 5.42487 22.5 11.5Z" stroke="#1E232C"/>
</svg>
