<svg width="113" height="33" viewBox="0 0 113 33" fill="none" xmlns="http://www.w3.org/2000/svg">
<path d="M109.782 32.413H3.21835C2.36508 32.4121 1.54702 32.0727 0.943665 31.4693C0.340307 30.866 0.000930885 30.0479 0 29.1946V3.80539C0.00093168 2.95212 0.340308 2.13406 0.943665 1.5307C1.54702 0.927344 2.36508 0.587967 3.21835 0.587036H109.782C110.635 0.587967 111.453 0.927344 112.056 1.5307C112.66 2.13406 112.999 2.95212 113 3.80539V29.1946C112.999 30.0479 112.66 30.866 112.056 31.4693C111.453 32.0727 110.635 32.4121 109.782 32.413ZM3.21835 1.30222C2.55472 1.30302 1.9185 1.56701 1.44924 2.03627C0.979978 2.50554 0.715996 3.14176 0.715193 3.80539V29.1946C0.715996 29.8583 0.979978 30.4945 1.44924 30.9637C1.9185 31.433 2.55472 31.697 3.21835 31.6978H109.782C110.445 31.697 111.081 31.433 111.551 30.9637C112.02 30.4945 112.284 29.8583 112.285 29.1946V3.80539C112.284 3.14176 112.02 2.50554 111.551 2.03627C111.081 1.56701 110.445 1.30302 109.782 1.30222H3.21835Z" fill="#1E232C"/>
<path d="M104.597 27.0491H8.40349C8.35644 27.0492 8.30984 27.04 8.26633 27.0221C8.22283 27.0042 8.18328 26.9779 8.14996 26.9447C8.11665 26.9115 8.09022 26.872 8.07219 26.8285C8.05415 26.7851 8.04486 26.7385 8.04486 26.6915C8.04486 26.6444 8.05415 26.5978 8.07219 26.5544C8.09022 26.5109 8.11665 26.4715 8.14996 26.4382C8.18328 26.405 8.22283 26.3787 8.26633 26.3608C8.30984 26.3429 8.35644 26.3337 8.40349 26.3339H104.597C104.644 26.3337 104.69 26.3429 104.734 26.3608C104.777 26.3787 104.817 26.405 104.85 26.4382C104.883 26.4715 104.91 26.5109 104.928 26.5544C104.946 26.5978 104.955 26.6444 104.955 26.6915C104.955 26.7385 104.946 26.7851 104.928 26.8285C104.91 26.872 104.883 26.9115 104.85 26.9447C104.817 26.9779 104.777 27.0042 104.734 27.0221C104.69 27.04 104.644 27.0492 104.597 27.0491Z" fill="#DCE0E7"/>
<path d="M17.2236 14H9.35657C9.2619 14.0003 9.17121 14.0381 9.10437 14.1051C9.03754 14.1721 9 14.2629 9 14.3576C9 14.4523 9.03754 14.5431 9.10437 14.6101C9.17121 14.6771 9.2619 14.7149 9.35657 14.7152H12.9325V21.0384C12.9262 21.4967 13.0949 21.9402 13.4042 22.2784C13.7135 22.6167 14.1402 22.8243 14.5972 22.8589C14.6196 22.8599 14.6426 22.8603 14.666 22.8603C14.9471 22.855 15.2227 22.7814 15.469 22.6457C15.7152 22.51 15.9247 22.3164 16.0793 22.0815C16.136 22.0057 16.1603 21.9104 16.1468 21.8166C16.1334 21.7229 16.0832 21.6383 16.0074 21.5815C15.9316 21.5246 15.8364 21.5002 15.7426 21.5136C15.6488 21.5269 15.5642 21.577 15.5073 21.6527C15.4161 21.8042 15.287 21.9293 15.1326 22.0155C14.9783 22.1018 14.8041 22.1462 14.6273 22.1444C14.354 22.119 14.1007 21.9906 13.9187 21.7852C13.7368 21.5797 13.6399 21.3127 13.6477 21.0384V14.7152H17.2237C17.2707 14.7153 17.3173 14.7062 17.3608 14.6883C17.4043 14.6703 17.4439 14.644 17.4772 14.6108C17.5105 14.5776 17.5369 14.5381 17.555 14.4947C17.573 14.4512 17.5823 14.4046 17.5823 14.3576C17.5823 14.3105 17.573 14.264 17.555 14.2205C17.5369 14.177 17.5105 14.1376 17.4772 14.1044C17.4439 14.0711 17.4043 14.0448 17.3608 14.0269C17.3173 14.009 17.2707 13.9999 17.2236 14Z" fill="#1269ED"/>
<path d="M18.8933 22.5935C19.0101 22.5895 19.1208 22.5403 19.2019 22.4562C19.2831 22.3722 19.3285 22.2599 19.3285 22.1431C19.3285 22.0262 19.2831 21.9139 19.2019 21.8299C19.1208 21.7458 19.0101 21.6966 18.8933 21.6926C18.7766 21.6966 18.6659 21.7458 18.5847 21.8299C18.5036 21.9139 18.4582 22.0262 18.4582 22.1431C18.4582 22.2599 18.5036 22.3722 18.5847 22.4562C18.6659 22.5403 18.7766 22.5895 18.8933 22.5935Z" fill="#1E232C"/>
<path d="M21.7541 22.5935C21.8709 22.5895 21.9815 22.5403 22.0627 22.4562C22.1439 22.3722 22.1893 22.2599 22.1893 22.1431C22.1893 22.0262 22.1439 21.9139 22.0627 21.8299C21.9815 21.7458 21.8709 21.6966 21.7541 21.6926C21.6373 21.6966 21.5267 21.7458 21.4455 21.8299C21.3643 21.9139 21.319 22.0262 21.319 22.1431C21.319 22.2599 21.3643 22.3722 21.4455 22.4562C21.5267 22.5403 21.6373 22.5895 21.7541 22.5935Z" fill="#1E232C"/>
<path d="M24.6149 22.5935C24.7317 22.5895 24.8423 22.5403 24.9235 22.4562C25.0047 22.3722 25.05 22.2599 25.05 22.1431C25.05 22.0262 25.0047 21.9139 24.9235 21.8299C24.8423 21.7458 24.7317 21.6966 24.6149 21.6926C24.4981 21.6966 24.3875 21.7458 24.3063 21.8299C24.2251 21.9139 24.1797 22.0262 24.1797 22.1431C24.1797 22.2599 24.2251 22.3722 24.3063 22.4562C24.3875 22.5403 24.4981 22.5895 24.6149 22.5935Z" fill="#1E232C"/>
</svg>
