<svg width="54" height="102" viewBox="0 0 54 102" fill="none" xmlns="http://www.w3.org/2000/svg">
<path d="M42.5 18C46.6421 18 50 14.6421 50 10.5C50 6.35786 46.6421 3 42.5 3C38.3579 3 35 6.35786 35 10.5C35 14.6421 38.3579 18 42.5 18Z" fill="#1269ED"/>
<path d="M43.2 21H10.8C7.93566 21 5.18864 19.8938 3.16325 17.9246C1.13786 15.9555 0 13.2848 0 10.5C0 7.71523 1.13786 5.04451 3.16325 3.07537C5.18864 1.10624 7.93566 0 10.8 0H43.2C46.0643 0 48.8114 1.10624 50.8368 3.07537C52.8621 5.04451 54 7.71523 54 10.5C54 13.2848 52.8621 15.9555 50.8368 17.9246C48.8114 19.8938 46.0643 21 43.2 21ZM10.8 1.4C8.31757 1.4 5.93681 2.35875 4.18147 4.06533C2.42613 5.77191 1.44 8.08653 1.44 10.5C1.44 12.9135 2.42613 15.2281 4.18147 16.9347C5.93681 18.6412 8.31757 19.6 10.8 19.6H43.2C45.6824 19.6 48.0632 18.6412 49.8185 16.9347C51.5739 15.2281 52.56 12.9135 52.56 10.5C52.56 8.08653 51.5739 5.77191 49.8185 4.06533C48.0632 2.35875 45.6824 1.4 43.2 1.4H10.8Z" fill="#1E232C"/>
<path d="M12 58C15.866 58 19 54.866 19 51C19 47.134 15.866 44 12 44C8.134 44 5 47.134 5 51C5 54.866 8.134 58 12 58Z" fill="#DCE0E7"/>
<path d="M43.2 62H10.8C7.93566 62 5.18864 60.8411 3.16325 58.7782C1.13786 56.7153 0 53.9174 0 51C0 48.0826 1.13786 45.2847 3.16325 43.2218C5.18864 41.1589 7.93566 40 10.8 40H43.2C46.0643 40 48.8114 41.1589 50.8368 43.2218C52.8621 45.2847 54 48.0826 54 51C54 53.9174 52.8621 56.7153 50.8368 58.7782C48.8114 60.8411 46.0643 62 43.2 62ZM10.8 41.4667C8.31757 41.4667 5.93683 42.4711 4.18149 44.2589C2.42615 46.0468 1.44 48.4716 1.44 51C1.44 53.5284 2.42615 55.9532 4.18149 57.7411C5.93683 59.5289 8.31757 60.5333 10.8 60.5333H43.2C45.6824 60.5333 48.0632 59.5289 49.8185 57.7411C51.5739 55.9532 52.56 53.5284 52.56 51C52.56 48.4716 51.5739 46.0468 49.8185 44.2589C48.0632 42.4711 45.6824 41.4667 43.2 41.4667H10.8Z" fill="#DCE0E7"/>
<path d="M12 99C15.866 99 19 95.6421 19 91.5C19 87.3579 15.866 84 12 84C8.134 84 5 87.3579 5 91.5C5 95.6421 8.134 99 12 99Z" fill="#DCE0E7"/>
<path d="M43.2 102H10.8C7.93566 102 5.18864 100.841 3.16325 98.7782C1.13786 96.7153 0 93.9174 0 91C0 88.0826 1.13786 85.2847 3.16325 83.2218C5.18864 81.1589 7.93566 80 10.8 80H43.2C46.0643 80 48.8114 81.1589 50.8368 83.2218C52.8621 85.2847 54 88.0826 54 91C54 93.9174 52.8621 96.7153 50.8368 98.7782C48.8114 100.841 46.0643 102 43.2 102ZM10.8 81.4667C8.31757 81.4667 5.93681 82.4711 4.18147 84.2589C2.42613 86.0468 1.44 88.4716 1.44 91C1.44 93.5284 2.42613 95.9532 4.18147 97.7411C5.93681 99.5289 8.31757 100.533 10.8 100.533H43.2C44.4292 100.533 45.6463 100.287 46.7819 99.8076C47.9175 99.3286 48.9494 98.6263 49.8185 97.7411C50.6877 96.8558 51.3771 95.8049 51.8475 94.6483C52.3179 93.4916 52.56 92.2519 52.56 91C52.56 89.7481 52.3179 88.5084 51.8475 87.3517C51.3771 86.1951 50.6877 85.1442 49.8185 84.2589C48.9494 83.3737 47.9175 82.6714 46.7819 82.1923C45.6463 81.7132 44.4292 81.4667 43.2 81.4667H10.8Z" fill="#DCE0E7"/>
</svg>
